<svg width="96" height="96" viewBox="0 0 96 96" fill="none" xmlns="http://www.w3.org/2000/svg">
<g clip-path="url(#clip0_175_416)">
<path d="M48 96C74.5097 96 96 74.5097 96 48C96 21.4903 74.5097 0 48 0C21.4903 0 0 21.4903 0 48C0 74.5097 21.4903 96 48 96Z" fill="url(#paint0_linear_175_416)"/>
<path fill-rule="evenodd" clip-rule="evenodd" d="M21.7281 47.4938C35.721 41.3973 45.0519 37.3781 49.7206 35.4362C63.0507 29.8918 65.8206 28.9286 67.6259 28.8968C68.023 28.8898 68.9109 28.9882 69.4859 29.4549C69.9715 29.8489 70.1052 30.3812 70.1691 30.7548C70.233 31.1284 70.3126 31.9794 70.2494 32.6444C69.527 40.2343 66.4013 58.6531 64.8112 67.1539C64.1383 70.751 62.8135 71.957 61.5308 72.0751C58.7434 72.3316 56.6267 70.2329 53.9269 68.4632C49.7023 65.6939 47.3157 63.97 43.2149 61.2677C38.4758 58.1447 41.548 56.4282 44.2488 53.6231C44.9556 52.8889 57.2372 41.7179 57.4749 40.7045C57.5046 40.5778 57.5322 40.1053 57.2515 39.8559C56.9709 39.6064 56.5566 39.6917 56.2577 39.7596C55.834 39.8557 49.0851 44.3165 36.011 53.1419C34.0954 54.4573 32.3603 55.0982 30.8056 55.0646C29.0918 55.0276 25.795 54.0956 23.3442 53.299C20.3382 52.3218 17.9491 51.8052 18.1572 50.1457C18.2655 49.2814 19.4558 48.3974 21.7281 47.4938Z" fill="white"/>
</g>
<defs>
<linearGradient id="paint0_linear_175_416" x1="4800" y1="0" x2="4800" y2="9528.8" gradientUnits="userSpaceOnUse">
<stop stop-color="#2AABEE"/>
<stop offset="1" stop-color="#229ED9"/>
</linearGradient>
<clipPath id="clip0_175_416">
<rect width="96" height="96" fill="white"/>
</clipPath>
</defs>
</svg>
